<svg id="visual" viewBox="0 0 900 600" width="900" height="600" xmlns="http://www.w3.org/2000/svg" xmlns:xlink="http://www.w3.org/1999/xlink" version="1.1"><g transform="translate(428.46924885567796 350.2657335957426)"><path d="M220.6 -275.8C264.8 -271.4 265.1 -178.8 242.9 -111C220.6 -43.3 175.9 -0.3 154.7 45.7C133.5 91.8 135.8 141 114 162C92.1 183.1 46 176 9.1 163.5C-27.8 151 -55.6 132.9 -82.7 113.6C-109.9 94.2 -136.2 73.5 -150.9 45.1C-165.5 16.7 -168.3 -19.5 -184.7 -88.1C-201.1 -156.8 -231 -258 -202.5 -267.5C-174 -277 -87 -194.7 0.6 -195.6C88.2 -196.4 176.3 -280.2 220.6 -275.8" fill="#303841"></path></g></svg>