<svg id="visual" viewBox="0 0 900 600" width="900" height="600" xmlns="http://www.w3.org/2000/svg" xmlns:xlink="http://www.w3.org/1999/xlink" version="1.1"><g transform="translate(868.175987529311 606.1275471203758)"><path d="M122.3 -175.4C167.7 -161 220.3 -142.8 226.7 -109.3C233.1 -75.7 193.2 -26.8 172.5 15.3C151.7 57.5 149.9 92.9 130.6 110.5C111.2 128.1 74.4 127.9 40 139.2C5.7 150.6 -26 173.7 -65.9 181.5C-105.8 189.4 -153.8 182.1 -162.3 152C-170.8 121.8 -139.8 68.7 -117.6 34.4C-95.3 0 -81.8 -15.6 -79.7 -43.1C-77.6 -70.7 -86.9 -110.2 -75.5 -140.2C-64.2 -170.2 -32.1 -190.6 3.2 -195.5C38.4 -200.4 76.8 -189.8 122.3 -175.4" fill="#303841"></path></g></svg>