<svg id="visual" viewBox="0 0 900 600" width="900" height="600" xmlns="http://www.w3.org/2000/svg" xmlns:xlink="http://www.w3.org/1999/xlink" version="1.1"><g transform="translate(913.7192794413826 5.375648381987759)"><path d="M89.6 -154C103.6 -130.5 93.6 -84.4 97.5 -51.6C101.3 -18.9 119 0.4 140.9 37.8C162.9 75.3 189.1 131 173.4 151.8C157.8 172.7 100.2 158.8 56 155.7C11.9 152.6 -18.7 160.2 -49 156.2C-79.2 152.1 -109.1 136.3 -113.3 110.1C-117.5 83.9 -95.9 47.3 -118.2 6.4C-140.5 -34.4 -206.7 -79.5 -205.6 -98.8C-204.5 -118.1 -136 -111.6 -90.5 -120.7C-45.1 -129.8 -22.5 -154.4 7.7 -166.3C37.8 -178.2 75.7 -177.4 89.6 -154" fill="#303841"></path></g></svg>