<svg id="visual" viewBox="0 0 960 540" width="960" height="540" xmlns="http://www.w3.org/2000/svg" xmlns:xlink="http://www.w3.org/1999/xlink" version="1.1"><rect x="0" y="0" width="960" height="540" fill="#eeeeee"></rect><defs><linearGradient id="grad1_0" x1="43.8%" y1="0%" x2="100%" y2="100%"><stop offset="14.444444444444446%" stop-color="#eeeeee" stop-opacity="1"></stop><stop offset="85.55555555555554%" stop-color="#eeeeee" stop-opacity="1"></stop></linearGradient></defs><defs><linearGradient id="grad2_0" x1="0%" y1="0%" x2="56.3%" y2="100%"><stop offset="14.444444444444446%" stop-color="#eeeeee" stop-opacity="1"></stop><stop offset="85.55555555555554%" stop-color="#eeeeee" stop-opacity="1"></stop></linearGradient></defs><g transform="translate(960, 0)"><path d="M0 324C-24.5 310.8 -48.9 297.7 -78.9 294.6C-109 291.5 -144.6 298.5 -162 280.6C-179.4 262.6 -178.6 219.7 -195.9 195.9C-213.2 172 -248.6 167.2 -255.5 147.5C-262.3 127.8 -240.6 93.3 -247.3 66.3C-253.9 39.2 -289 19.6 -324 0L0 0Z" fill="#be3144"></path></g><g transform="translate(0, 540)"><path d="M0 -324C25.8 -317.4 51.5 -310.8 82.6 -308.1C113.6 -305.5 149.8 -306.7 162 -280.6C174.2 -254.5 162.2 -201 176.8 -176.8C191.3 -152.6 232.4 -157.7 250.3 -144.5C268.2 -131.3 263 -99.9 271.4 -72.7C279.9 -45.6 301.9 -22.8 324 0L0 0Z" fill="#be3144"></path></g></svg>